<svg width="24" height="24" viewBox="0 0 24 24" fill="none" xmlns="http://www.w3.org/2000/svg">
<path d="M7.01085 20.6686C8.47917 21.5154 10.1828 21.9999 11.9996 21.9999C17.5225 21.9999 22 17.5228 22 12C22 6.47715 17.5228 2 12 2C6.47715 2 2 6.47715 2 12C2 13.8168 2.48449 15.5204 3.33133 16.9888L3.33461 16.9944C3.41609 17.1357 3.45718 17.207 3.47579 17.2743C3.49334 17.3378 3.49824 17.3949 3.49375 17.4606C3.48892 17.5312 3.46511 17.6045 3.41631 17.7509L2.56207 20.3136L2.56099 20.317C2.38075 20.8577 2.29063 21.128 2.35487 21.3082C2.41088 21.4653 2.53521 21.5892 2.69227 21.6452C2.87202 21.7093 3.14116 21.6196 3.6795 21.4402L3.6862 21.4377L6.24894 20.5834C6.39486 20.5348 6.46904 20.5101 6.53955 20.5053C6.60528 20.5008 6.66197 20.5068 6.72548 20.5243C6.79298 20.543 6.86426 20.5841 7.00626 20.666L7.01085 20.6686Z" stroke="#42464D" stroke-width="1.5" stroke-linecap="round" stroke-linejoin="round"/>
</svg>
