<svg width="24" height="24" viewBox="0 0 24 24" fill="none" xmlns="http://www.w3.org/2000/svg">
<path d="M4.37988 18.379C3.23438 18.3209 2.50391 17.6236 2.26318 16.2457L0.744141 7.64606C0.445312 5.9527 1.15088 4.9566 2.86084 4.65778L15.2622 2.46637C16.9639 2.16754 17.9766 2.86481 18.2671 4.54987L18.5576 6.23492H7.99072C5.625 6.23492 4.37988 7.46344 4.37988 9.81256V18.379ZM8.11523 21.334C6.38037 21.334 5.51709 20.4708 5.51709 18.7608V9.93707C5.51709 8.22711 6.38037 7.37213 8.11523 7.37213H20.7075C22.4341 7.37213 23.314 8.23541 23.314 9.93707V18.7608C23.314 20.4708 22.4341 21.334 20.7075 21.334H8.11523Z" fill="currentColor"/>
</svg>
