<svg width="24" height="24" viewBox="0 0 24 24" fill="none" xmlns="http://www.w3.org/2000/svg">
<path d="M5.26807 18.3292C3.56641 18.628 2.56201 17.9307 2.26318 16.2457L0.744141 7.64606C0.445312 5.9527 1.15088 4.9566 2.86084 4.65778L15.2622 2.46637C16.9639 2.16754 17.9766 2.86481 18.2671 4.54987L18.7568 7.37213H20.7075C22.4341 7.37213 23.314 8.23541 23.314 9.93707V18.7608C23.314 20.4708 22.4341 21.334 20.7075 21.334H8.11523C6.38037 21.334 5.51709 20.4708 5.51709 18.7608V18.2877L5.26807 18.3292ZM3.56641 15.9385C3.71582 16.7852 4.24707 17.1505 5.06055 17.0093L5.51709 16.9263V9.93707C5.51709 8.22711 6.38037 7.37213 8.11523 7.37213H17.4121L16.9722 4.85699C16.8145 4.01031 16.2749 3.64508 15.4697 3.78619L3.11816 5.9693C2.29639 6.11041 1.92285 6.63336 2.07227 7.48004L3.56641 15.9385ZM8.14014 19.9976H20.6826C21.5044 19.9976 21.9775 19.5494 21.9775 18.6861V10.0118C21.9775 9.1485 21.5044 8.70856 20.6826 8.70856H8.14014C7.31006 8.70856 6.85352 9.1485 6.85352 10.0118V18.6861C6.85352 19.5494 7.31006 19.9976 8.14014 19.9976Z" fill="currentColor"/>
</svg>
