<svg width="24" height="24" viewBox="0 0 24 24" fill="none" xmlns="http://www.w3.org/2000/svg">
<path d="M15.6115 4.29816C16.3641 5.03884 16.9626 5.92119 17.3725 6.89433C17.7825 7.86746 17.9957 8.91212 17.9999 9.96806C18.0041 11.024 17.7992 12.0703 17.3971 13.0467C16.995 14.0231 16.4035 14.9102 15.6568 15.6569C14.9102 16.4035 14.0231 16.995 13.0467 17.3971C12.0703 17.7993 11.024 18.0042 9.96803 17.9999C8.91209 17.9957 7.86743 17.7825 6.8943 17.3726C5.92116 16.9626 5.03881 16.3641 4.29813 15.6115C2.81763 14.1072 1.99161 12.0787 2.00003 9.96806C2.00846 7.85741 2.85065 5.83561 4.34312 4.34315C5.83558 2.85068 7.85738 2.00849 9.96803 2.00006C12.0787 1.99164 14.1071 2.81766 15.6115 4.29816" stroke="currentColor" stroke-width="1.5" stroke-linecap="round" stroke-linejoin="round"/>
<path d="M16 16L22 22" stroke="currentColor" stroke-width="1.5" stroke-linecap="round" stroke-linejoin="round"/>
</svg>
