<svg preserveAspectRatio="none" width="100%" height="100%" overflow="visible" style="display: block;" viewBox="0 0 18 20" fill="none" xmlns="http://www.w3.org/2000/svg">
<path id="Vector" d="M7.77849 11.2175C4.55003 11.2734 2.10437 13.2165 1.09426 15.9477C0.696508 17.0231 1.61562 18.027 2.76229 18.027H8.40858M7.77849 11.2175C7.82616 11.2166 7.87403 11.2162 7.9221 11.2162C8.26468 11.2162 8.5987 11.2373 8.92329 11.2783M7.77849 11.2175C7.14596 11.2285 6.54388 11.3119 5.97625 11.4595M8.92329 11.2783C9.24797 11.3193 9.56321 11.3801 9.86843 11.4595M8.92329 11.2783C9.60631 11.3645 10.2479 11.5385 10.841 11.7883M14.0032 13.1622V16.0811M14.0032 16.0811V19M14.0032 16.0811H11.0843M14.0032 16.0811H16.9221M11.5707 4.64865C11.5707 6.66374 9.93722 8.2973 7.9221 8.2973C5.90702 8.2973 4.27347 6.66374 4.27347 4.64865C4.27347 2.63355 5.90702 1 7.9221 1C9.93722 1 11.5707 2.63355 11.5707 4.64865Z" stroke="var(--stroke-0, #42464D)" stroke-width="1.5" stroke-linecap="round" stroke-linejoin="round"/>
</svg>
