<svg width="20" height="20" viewBox="0 0 20 20" fill="none" xmlns="http://www.w3.org/2000/svg">
<path d="M14.4902 17.8018C13.1687 18.5639 11.6355 19 10.0004 19C5.02979 19 1 14.9706 1 10C1 5.02944 5.02944 1 10 1C14.9706 1 19 5.02944 19 10C19 11.6351 18.564 13.1684 17.8018 14.4899L17.7989 14.495C17.7255 14.6221 17.6885 14.6863 17.6718 14.7469C17.656 14.804 17.6516 14.8554 17.6556 14.9146C17.66 14.9781 17.6814 15.044 17.7253 15.1758L18.4941 17.4823L18.4951 17.4853C18.6573 17.9719 18.7384 18.2152 18.6806 18.3774C18.6302 18.5187 18.5183 18.6303 18.377 18.6807C18.2152 18.7384 17.973 18.6577 17.4885 18.4962L17.4824 18.4939L15.176 17.7251C15.0446 17.6813 14.9779 17.6591 14.9144 17.6548C14.8552 17.6507 14.8042 17.6561 14.7471 17.6719C14.6863 17.6887 14.6222 17.7257 14.4944 17.7994L14.4902 17.8018Z" stroke="#42464D" stroke-width="1.5" stroke-linecap="round" stroke-linejoin="round"/>
</svg>
